<?xml version="1.0" encoding="UTF-8" standalone="no"?>
<!DOCTYPE svg PUBLIC "-//W3C//DTD SVG 1.1//EN" "http://www.w3.org/Graphics/SVG/1.1/DTD/svg11.dtd">
<svg version="1.1" xmlns="http://www.w3.org/2000/svg" xmlns:xlink="http://www.w3.org/1999/xlink" preserveAspectRatio="xMidYMid meet" viewBox="0 0 640 640" width="640" height="640"><defs><path d="M96.84 255.42L96.84 231.75L145.49 231.75L145.49 255.42L129.27 255.42L129.27 331.9L113.83 331.9L113.83 255.42L96.84 255.42Z" id="c1e30Q0IqD"></path><path d="M217.29 231.75C235.82 253.6 235.82 275.75 217.29 298.21L232.73 331.9L211.89 331.9L194.9 298.21L179.46 298.21L179.46 331.9L161.7 331.9L161.7 231.75C180.23 209.89 198.76 209.89 217.29 231.75Z" id="b2gLQHiLOH"></path><path d="" id="dBvKQ7DJC"></path><path d="M187.48 284.56C180.93 293.2 178.16 278.48 179.18 240.4C179.27 237.07 183.27 235.42 185.68 237.73C190.15 241.99 197.17 248.7 201.61 252.94C205.22 256.38 205.52 262.03 202.31 265.84C198.13 270.79 193.19 277.03 187.48 284.56Z" id="bPJeKnok3"></path><path d="M259.93 282.91C259.93 291.18 266.64 297.89 274.91 297.89C277.01 297.89 271.91 297.89 274.91 297.89C280.71 297.89 285.41 293.19 285.41 287.39C285.41 276.26 285.41 252.84 285.41 241.57C285.41 236.15 289.81 231.75 295.24 231.75C296.67 231.75 292.82 231.75 294.68 231.75C298.91 231.75 302.32 235.23 302.22 239.46C301.79 257.95 300.86 298.11 300.48 314.7C300.26 324.26 292.44 331.9 282.87 331.9C274.73 331.9 267.92 331.9 259.88 331.9C250.1 331.9 242.17 323.97 242.17 314.19C242.17 297.7 242.17 259 242.17 240.77C242.17 235.79 246.21 231.75 251.2 231.75C252.94 231.75 249.39 231.75 251.2 231.75C256.02 231.75 259.93 235.66 259.93 240.48C259.93 251.96 259.93 272.68 259.93 282.91Z" id="bTF55BLxK"></path><path d="M313.81 257.24L333.88 286.85L333.88 331.9L357.05 331.9L357.05 286.85L377.89 231.75L357.05 231.75L343.15 257.24L333.88 231.75L313.81 231.75L313.81 257.24Z" id="aEgGe3Y9H"></path><path d="M453.29 238.86C453.29 244.6 448.64 249.26 442.89 249.26C437.83 249.26 429.41 249.26 423.43 249.26C420.2 249.26 417.57 251.89 417.57 255.12C417.57 257.55 417.57 259.66 417.57 262.26C417.57 265.03 419.82 267.27 422.59 267.27C428.73 267.27 441.13 267.27 447.02 267.27C450.48 267.27 453.29 270.08 453.29 273.55C453.29 276.21 453.29 274.5 453.29 276.31C453.29 282.13 448.58 286.84 442.76 286.84C437.72 286.84 430.08 286.84 424.28 286.84C420.58 286.84 417.57 289.85 417.57 293.55C417.57 295.5 417.57 294.64 417.57 296.59C417.57 300.29 420.58 303.3 424.28 303.3C430.08 303.3 439.02 303.3 444.38 303.3C449.3 303.3 453.29 307.29 453.29 312.21C453.29 316.15 453.29 317.86 453.29 321.5C453.29 327.25 448.64 331.9 442.89 331.9C432.15 331.9 415.1 331.9 405.55 331.9C396.52 331.9 389.21 324.59 389.21 315.56C389.21 298.8 389.21 268.08 389.21 252.13C389.21 240.87 398.33 231.75 409.59 231.75C418.33 231.75 432.15 231.75 442.89 231.75C448.64 231.75 453.29 236.4 453.29 242.15C453.29 243.57 453.29 237.44 453.29 238.86Z" id="a1gWb9SsSW"></path><path d="M397.32 227.41C400.07 227.41 402.63 226.05 404.16 223.78C405.28 222.12 405.42 221.9 406.35 220.53C408.47 217.38 412.02 215.5 415.81 215.5C418.36 215.5 419.51 215.5 421.95 215.5C426.05 215.5 429.86 217.63 432 221.12C432.77 222.38 432.12 221.31 433.01 222.77C434.79 225.65 437.93 227.41 441.31 227.41C442.67 227.41 440.3 227.41 441.41 227.41C444.13 227.41 445.65 224.28 443.97 222.15C440.89 218.22 434.27 209.79 430.82 205.38C429.45 203.64 427.16 202.9 425.02 203.51C424.12 203.77 421.86 204.42 418.25 205.46C414.92 204.49 412.84 203.88 412 203.63C409.65 202.95 407.12 203.74 405.59 205.65C402.1 210 395.63 218.06 392.51 221.95C390.74 224.15 392.31 227.41 395.12 227.41C396.44 227.41 395.48 227.41 397.32 227.41Z" id="a54ia2IrHg"></path><path d="M418.99 362.99C425.58 362.99 430.85 357.53 430.6 350.95C430.52 348.52 430.69 353.16 430.6 350.7C430.35 344.09 424.89 338.86 418.27 338.91C415.78 338.93 420.31 338.89 417.85 338.91C411.19 338.96 405.81 344.38 405.81 351.04C405.81 353.43 405.81 348.68 405.81 351.1C405.81 357.67 411.13 362.99 417.7 362.99C420.37 362.99 416.35 362.99 418.99 362.99Z" id="fjaZmunzS"></path><path d="M516.67 265.83C518.62 269.11 523.66 267.72 523.66 263.9C523.66 257.47 523.66 250.39 523.66 243.59C523.66 237.05 528.96 231.75 535.51 231.75C540.08 231.75 541.83 231.75 546.37 231.75C552.89 231.75 558.06 237.22 557.68 243.73C556.66 261.36 554.44 299.76 553.46 316.77C552.97 325.26 545.94 331.9 537.43 331.9C535.67 331.9 545.15 331.9 543.29 331.9C534.08 331.9 525.44 327.46 520.07 319.98C515.33 313.37 509.57 305.32 504.8 298.68C502.17 295.01 496.38 296.87 496.38 301.38C496.38 307.49 496.38 309.88 496.38 315.62C496.38 324.61 489.09 331.9 480.1 331.9C476.91 331.9 483.93 331.9 480.81 331.9C471.7 331.9 464.4 324.36 464.7 315.25C465.25 298.55 466.4 263.61 466.97 246.54C467.24 238.29 474.01 231.75 482.26 231.75C485.08 231.75 481.65 231.75 485.2 231.75C492.14 231.75 498.56 235.4 502.1 241.35C506.41 248.59 512.61 259.01 516.67 265.83Z" id="bxChXAM9"></path><path d="M538.88 287.76C542.26 287.67 544.96 284.9 544.96 281.52C544.96 279.94 544.96 282.39 544.96 281.09C544.96 276.97 541.62 273.63 537.5 273.63C534.37 273.63 532.92 273.63 529.91 273.63C525.57 273.63 522.16 277.34 522.52 281.66C522.63 282.96 522.39 280.07 522.52 281.68C522.83 285.33 525.93 288.1 529.59 288C532.66 287.92 535.72 287.84 538.88 287.76Z" id="a2zAjbM4wB"></path><path d="M538.45 286.46C541.14 286.39 543.29 284.18 543.29 281.49C543.29 280.23 543.29 282.18 543.29 281.14C543.29 277.86 540.63 275.2 537.35 275.2C534.83 275.2 533.61 275.2 531.19 275.2C527.73 275.2 525.02 278.16 525.31 281.6C525.4 282.64 525.2 280.33 525.31 281.61C525.55 284.52 528.02 286.73 530.94 286.65C533.41 286.59 535.91 286.52 538.45 286.46Z" id="ccar1qaYZ"></path><path d="M539.7 311.44C545.25 311.26 549.67 306.7 549.67 301.14C549.67 298.51 549.67 302.4 549.67 300.22C549.67 293.46 544.19 287.98 537.43 287.98C533.51 287.98 534.78 287.98 531.06 287.98C523.91 287.98 518.26 294.04 518.76 301.17C518.91 303.35 518.59 298.71 518.77 301.4C519.19 307.36 524.24 311.92 530.21 311.74C534.1 311.61 535.66 311.56 539.7 311.44Z" id="b2oEN8b3dS"></path><path d="M538.14 308.39C542.28 308.26 545.56 304.87 545.56 300.73C545.56 298.7 545.56 301.38 545.56 299.69C545.56 294.66 541.49 290.58 536.46 290.58C533.54 290.58 534.49 290.58 531.72 290.58C526.4 290.58 522.19 295.09 522.56 300.4C522.67 302.09 522.45 298.87 522.59 300.94C522.9 305.37 526.65 308.76 531.09 308.62C533.99 308.52 535.14 308.49 538.14 308.39Z" id="a7RL1bnWy"></path></defs><g><g><g><use xlink:href="#c1e30Q0IqD" opacity="1" fill="#1ef5d5" fill-opacity="1"></use><g><use xlink:href="#c1e30Q0IqD" opacity="1" fill-opacity="0" stroke="#000000" stroke-width="1" stroke-opacity="1"></use></g></g><g><use xlink:href="#b2gLQHiLOH" opacity="1" fill="#2cf2d4" fill-opacity="1"></use><g><use xlink:href="#b2gLQHiLOH" opacity="1" fill-opacity="0" stroke="#000000" stroke-width="1" stroke-opacity="1"></use></g></g><g><g><use xlink:href="#dBvKQ7DJC" opacity="1" fill-opacity="0" stroke="#000000" stroke-width="1" stroke-opacity="1"></use></g></g><g><use xlink:href="#bPJeKnok3" opacity="1" fill="#fcf9f9" fill-opacity="1"></use><g><use xlink:href="#bPJeKnok3" opacity="1" fill-opacity="0" stroke="#000000" stroke-width="1" stroke-opacity="1"></use></g></g><g><use xlink:href="#bTF55BLxK" opacity="1" fill="#43f8dd" fill-opacity="1"></use><g><use xlink:href="#bTF55BLxK" opacity="1" fill-opacity="0" stroke="#000000" stroke-width="1" stroke-opacity="1"></use></g></g><g><use xlink:href="#aEgGe3Y9H" opacity="1" fill="#43f8dd" fill-opacity="1"></use><g><use xlink:href="#aEgGe3Y9H" opacity="1" fill-opacity="0" stroke="#000000" stroke-width="1" stroke-opacity="1"></use></g></g><g><use xlink:href="#a1gWb9SsSW" opacity="1" fill="#43f8dd" fill-opacity="1"></use><g><use xlink:href="#a1gWb9SsSW" opacity="1" fill-opacity="0" stroke="#000000" stroke-width="1" stroke-opacity="1"></use></g></g><g><use xlink:href="#a54ia2IrHg" opacity="1" fill="#43f8dd" fill-opacity="1"></use><g><use xlink:href="#a54ia2IrHg" opacity="1" fill-opacity="0" stroke="#000000" stroke-width="1" stroke-opacity="1"></use></g></g><g><use xlink:href="#fjaZmunzS" opacity="1" fill="#43f8dd" fill-opacity="1"></use><g><use xlink:href="#fjaZmunzS" opacity="1" fill-opacity="0" stroke="#000000" stroke-width="1" stroke-opacity="1"></use></g></g><g><use xlink:href="#bxChXAM9" opacity="1" fill="#43f8dd" fill-opacity="1"></use><g><use xlink:href="#bxChXAM9" opacity="1" fill-opacity="0" stroke="#000000" stroke-width="1" stroke-opacity="1"></use></g></g><g><use xlink:href="#a2zAjbM4wB" opacity="1" fill="#f2290b" fill-opacity="1"></use><g><use xlink:href="#a2zAjbM4wB" opacity="1" fill-opacity="0" stroke="#000000" stroke-width="1" stroke-opacity="1"></use></g></g><g><use xlink:href="#ccar1qaYZ" opacity="1" fill="#31f6df" fill-opacity="1"></use><g><use xlink:href="#ccar1qaYZ" opacity="1" fill-opacity="0" stroke="#000000" stroke-width="1" stroke-opacity="1"></use></g></g><g><use xlink:href="#b2oEN8b3dS" opacity="1" fill="#e14414" fill-opacity="1"></use><g><use xlink:href="#b2oEN8b3dS" opacity="1" fill-opacity="0" stroke="#000000" stroke-width="1" stroke-opacity="1"></use></g></g><g><use xlink:href="#a7RL1bnWy" opacity="1" fill="#1ef6fb" fill-opacity="1"></use><g><use xlink:href="#a7RL1bnWy" opacity="1" fill-opacity="0" stroke="#000000" stroke-width="1" stroke-opacity="1"></use></g></g></g></g></svg>